<svg width="15" height="18" viewBox="0 0 15 18" fill="none" xmlns="http://www.w3.org/2000/svg">
<path d="M12.5698 2.19605V1.22376C12.5698 1.0449 12.4248 0.899902 12.246 0.899902H11.2737C11.0948 0.899902 10.9498 1.0449 10.9498 1.22376V2.19605C10.9498 2.37491 10.8048 2.51991 10.626 2.51991H4.79365C4.61479 2.51991 4.46979 2.37491 4.46979 2.19605V1.22376C4.46979 1.0449 4.3248 0.899902 4.14593 0.899902H3.17365C2.99478 0.899902 2.84979 1.0449 2.84979 1.22376V2.19605C2.84979 2.37491 2.70479 2.51991 2.52593 2.51991H1.56204C0.93617 2.51991 0.428675 3.02704 0.428228 3.65291L0.419434 15.9653C0.418986 16.5918 0.926742 17.0999 1.55325 17.0999H13.866C14.4922 17.0999 14.9998 16.5923 14.9998 15.9661V3.65372C14.9998 3.02753 14.4922 2.51991 13.866 2.51991H12.8937C12.7148 2.51991 12.5698 2.37491 12.5698 2.19605ZM13.056 15.4799H2.36364C2.18478 15.4799 2.03979 15.3349 2.03979 15.1561V6.89378C2.03979 6.71491 2.18478 6.56992 2.36364 6.56992H13.056C13.2348 6.56992 13.3798 6.71491 13.3798 6.89378V15.1561C13.3798 15.3349 13.2348 15.4799 13.056 15.4799ZM5.80595 10.6634H4.11666C3.86434 10.6634 3.65979 10.4589 3.65979 10.2066V8.51727C3.65979 8.26495 3.86434 8.0604 4.11666 8.0604H5.80595C6.05828 8.0604 6.26282 8.26495 6.26282 8.51727V10.2066C6.26282 10.4589 6.05828 10.6634 5.80595 10.6634ZM9.39849 10.6634H7.7092C7.45688 10.6634 7.25233 10.4589 7.25233 10.2066V8.51727C7.25233 8.26495 7.45688 8.0604 7.7092 8.0604H9.39849C9.65082 8.0604 9.85536 8.26495 9.85536 8.51727V10.2066C9.85536 10.4589 9.65082 10.6634 9.39849 10.6634Z" fill="#13191D"/>
</svg>
