<svg width="39" height="38" viewBox="0 0 39 38" fill="none" xmlns="http://www.w3.org/2000/svg">
<path fill-rule="evenodd" clip-rule="evenodd" d="M7.77992 26.4108C7.77992 26.4108 8.52992 25.4708 10.9799 25.4708C13.4199 25.4708 16.6199 26.7208 16.6199 31.6808C16.6199 36.6408 11.3799 37.8708 9.57992 37.8708C5.67992 37.8708 0.169922 36.1708 0.169922 23.4508C0.169922 10.7308 11.9199 0.320786 11.9199 0.320786C12.7999 -0.559214 12.6099 0.570786 11.9199 1.32079C11.2299 2.08079 3.51992 13.2408 7.77992 26.4108ZM29.9899 26.4108C29.9899 26.4108 30.7399 25.4708 33.1899 25.4708C35.6299 25.4708 38.8299 26.7208 38.8299 31.6808C38.8299 36.6408 33.5899 37.8708 31.7899 37.8708C27.8899 37.8708 22.3799 36.1708 22.3799 23.4508C22.3799 10.7308 34.1299 0.320786 34.1299 0.320786C35.0099 -0.559214 34.8199 0.570786 34.1299 1.32079C33.4399 2.08079 25.7299 13.2408 29.9899 26.4108Z" fill="#13191D"/>
</svg>
