<svg width="15" height="18" viewBox="0 0 15 18" fill="none" xmlns="http://www.w3.org/2000/svg">
<path d="M12.5698 2.19604V1.22376C12.5698 1.0449 12.4248 0.899902 12.2459 0.899902H11.2736C11.0948 0.899902 10.9498 1.0449 10.9498 1.22376V2.19604C10.9498 2.37491 10.8048 2.5199 10.6259 2.5199H4.79364C4.61478 2.5199 4.46978 2.37491 4.46978 2.19604V1.22376C4.46978 1.0449 4.32478 0.899902 4.14592 0.899902H3.17364C2.99478 0.899902 2.84978 1.0449 2.84978 1.22376V2.19604C2.84978 2.37491 2.70478 2.5199 2.52592 2.5199H1.56204C0.936168 2.5199 0.428676 3.02703 0.428228 3.6529L0.419434 15.9653C0.418986 16.5918 0.926741 17.0999 1.55324 17.0999H13.866C14.4922 17.0999 14.9998 16.5923 14.9998 15.9661V3.65371C14.9998 3.02753 14.4922 2.5199 13.866 2.5199H12.8936C12.7148 2.5199 12.5698 2.37491 12.5698 2.19604ZM13.0559 15.4799H2.36364C2.18478 15.4799 2.03978 15.3349 2.03978 15.156V6.89376C2.03978 6.7149 2.18478 6.5699 2.36364 6.5699H13.0559C13.2348 6.5699 13.3798 6.7149 13.3798 6.89376V15.156C13.3798 15.3349 13.2348 15.4799 13.0559 15.4799ZM5.80594 10.6634H4.11665C3.86433 10.6634 3.65978 10.4589 3.65978 10.2065V8.51725C3.65978 8.26493 3.86433 8.06038 4.11665 8.06038H5.80594C6.05826 8.06038 6.26281 8.26493 6.26281 8.51725V10.2065C6.26281 10.4589 6.05826 10.6634 5.80594 10.6634Z" fill="#13191D"/>
</svg>
